<svg width="62" height="71" viewBox="0 0 62 71" fill="none" xmlns="http://www.w3.org/2000/svg">
<path fill-rule="evenodd" clip-rule="evenodd" d="M46.0178 0.0321848C45.1288 0.131926 44.0855 0.54694 43.3543 1.09176C42.9654 1.38144 42.8481 1.4958 42.3844 2.03751C42.2463 2.19873 42.1823 2.21796 41.7841 2.21796C41.2066 2.21796 40.7558 2.0501 39.7574 1.46357C39.3247 1.20931 38.8035 0.939878 38.5993 0.864785C38.0788 0.67336 37.4727 0.683652 37.0181 0.891667C36.7188 1.02865 36.6308 1.11492 36.4484 1.44962C36.1064 2.07739 35.5857 2.72676 35.2334 2.96504C34.5453 3.43037 34.0731 3.30029 32.7911 2.29245C31.8512 1.55349 31.3141 1.27289 30.7425 1.2219C30.3953 1.19096 30.1881 1.228 29.3855 1.46452C28.2787 1.79063 28.0497 1.88861 27.8156 2.13644C27.5993 2.36537 27.5421 2.65505 27.6518 2.96626C27.7362 3.2059 27.8722 3.39895 29.8813 6.13137C31.1058 7.79677 31.3072 8.16703 31.2587 8.6633C31.2345 8.9114 31.177 9.04926 31.0424 9.18151L30.8592 9.36169L28.7513 9.37449C26.8313 9.38614 26.6012 9.39995 26.1685 9.52908C25.1841 9.82295 25.2817 9.71597 21.9408 14.1693C20.8512 15.6218 19.6093 17.2522 19.1811 17.7924L18.4025 18.7747L17.5196 19.0594C16.4968 19.3891 16.1361 19.4322 13.1578 19.581C11.3359 19.672 10.5264 19.696 6.02778 19.7919C2.87604 19.8591 1.24689 19.9535 0.745102 20.0981C0.275142 20.2336 0 20.4573 0 20.7041C0 20.7688 0.744 22.2864 1.65333 24.0767C2.56267 25.8669 3.30667 27.3476 3.30667 27.367C3.30667 27.3865 3.49473 27.7768 3.72462 28.2343C4.245 29.2699 5.05493 31.0212 5.28371 31.6054C7.0939 36.228 7.88089 41.4007 7.9402 49.0661L7.95667 51.1897L9.92 51.1559C11.095 51.1356 12.5057 51.0649 13.4333 50.9798C14.2858 50.9016 15.3067 50.8144 15.7019 50.786L16.4206 50.7344L16.4802 50.5312C16.5497 50.294 16.5494 49.2341 16.4793 48.1274C16.4522 47.6991 16.4396 47.2015 16.4512 47.0215C16.4723 46.6971 16.4755 46.6929 16.8467 46.5259C17.242 46.3481 17.6101 46.2822 18.8411 46.1692C19.2579 46.1309 19.7612 46.0474 19.9595 45.9836L20.3202 45.8677L20.2775 44.8815C20.2319 43.8274 20.3046 43.343 20.591 42.7912L20.7248 42.5334L21.4363 42.4421C22.5029 42.3053 23.4596 42.2778 23.8091 42.374C23.9752 42.4198 24.1111 42.4805 24.1111 42.5091C24.1111 42.5377 23.9083 42.8004 23.6604 43.0928C22.19 44.8274 20.8946 47.077 20.0088 49.4342C19.2407 51.4781 18.9889 52.7904 18.9977 54.7043C19.02 59.5552 21.6618 64.1848 26.3536 67.5953C28.5673 69.2045 30.6443 70.0897 33.4111 70.603C36.1366 71.1086 39.4675 71.1315 43.2278 70.6703C48.412 70.0346 51.7248 69.1664 54.8531 67.6239C56.5838 66.7705 57.8313 65.9089 59.0077 64.7542C60.9844 62.8139 62 60.5507 62 58.0859C62 51.9238 59.4777 45.9541 54.531 40.4084C52.97 38.6583 51.0144 36.8213 49.135 35.3396C48.1031 34.526 48.107 34.5329 48.1734 33.6454C48.2514 32.6047 48.5581 32.0305 49.7205 30.7504C50.9858 29.3568 51.1013 28.9767 50.6679 27.6342C50.6066 27.4443 50.9776 27.0344 51.5943 26.6109C52.3338 26.1031 52.532 25.8816 52.8044 25.2583C53.1941 24.3667 53.3404 23.7041 53.3079 22.978C53.2789 22.3279 53.1881 22.0838 52.6127 21.1099C52.414 20.7735 52.393 20.6851 52.3959 20.1958C52.3988 19.7066 52.431 19.5786 52.7282 18.8754C53.3328 17.4453 53.41 17.1922 53.4122 16.6332C53.4149 15.9607 53.1997 15.5154 52.5447 14.8376C51.5537 13.8121 50.9287 13.5483 47.9877 12.9139C47.3921 12.7853 47.2696 12.7337 47.0233 12.5078L46.7411 12.2489L46.746 11.7194C46.7501 11.2819 46.7904 11.0958 46.9783 10.6482C48.1179 7.93281 49.6471 5.6651 52.3803 2.63711C52.8121 2.15871 53.1066 1.77878 53.0713 1.74526C52.8341 1.51957 51.4734 1.26998 50.4805 1.26998H49.9451L49.5195 0.932836C48.6353 0.23248 47.2979 -0.111502 46.0178 0.0321848ZM39.4567 11.6796L39.9569 11.7316L40.5643 12.6796C40.8984 13.201 41.4996 14.1311 41.9004 14.7464C42.6481 15.8948 43.4344 17.3084 43.8136 18.1867L44.0279 18.6831L43.8536 18.9077C43.628 19.1985 43.1635 19.4174 42.7755 19.4159C42.2967 19.414 41.5445 19.2339 41.0922 19.0127C40.518 18.7319 40.0474 18.368 38.9075 17.3231C38.3662 16.827 37.7282 16.284 37.4897 16.1166L37.0562 15.8122L36.7662 15.921C35.8155 16.2779 34.9721 17.0038 33.9628 18.3337C33.6096 18.7992 33.1519 19.3852 32.9457 19.6359L32.5709 20.0917L32.4068 21.0578C32.1602 22.5103 32.0807 23.3728 32.124 24.1231C32.163 24.7985 32.3582 25.5935 32.562 25.9071C32.6538 26.0485 32.6535 26.1308 32.5587 26.652C32.2979 28.0866 32.2313 30.0646 32.387 31.7509L32.4661 32.6074L32.041 33.3083C31.0512 34.9405 29.3124 37.0884 27.1299 39.3749L26.7912 39.7298L23.5395 39.6537C21.751 39.6119 20.2812 39.5728 20.2732 39.5667C20.1988 39.5105 19.7751 33.3486 19.6303 30.2173C19.5428 28.326 19.5368 21.2559 19.6224 20.9053C19.7124 20.5366 22.2884 16.9653 24.2368 14.5079C25.6457 12.7308 26.6044 11.6457 26.7978 11.6091C27.0751 11.5565 38.9073 11.6225 39.4567 11.6796ZM49.6 15.3995C49.8842 15.458 50.2897 15.5914 50.5012 15.6961C50.8483 15.868 50.9049 15.928 51.0831 16.3144C51.2608 16.6997 51.2809 16.8166 51.2841 17.4848L51.2878 18.2273L50.7711 18.4301C50.2741 18.6251 50.2137 18.6328 49.1867 18.6312C48.521 18.6302 47.8724 18.5881 47.4644 18.5193C46.8347 18.4131 46.7999 18.3979 46.545 18.1174C45.9589 17.4726 45.4319 16.5387 45.2342 15.794L45.1399 15.4391L46.3538 15.359C47.0215 15.315 47.6453 15.269 47.74 15.2568C48.064 15.2149 49.0829 15.2932 49.6 15.3995ZM49.8236 21.0926C50.6382 21.369 51.0777 21.818 51.2988 22.5995C51.4112 22.9972 51.4116 23.0492 51.304 23.4523C51.1589 23.9961 50.9065 24.3718 50.5149 24.6268C50.1451 24.8675 49.7545 24.9488 48.7044 25.0033C47.9507 25.0425 45.074 25.2208 40.5411 25.5095C35.9554 25.8015 35.7846 25.8082 35.4298 25.7113C34.9826 25.5893 34.3776 25.0027 34.2155 24.5343C33.8917 23.5987 34.3132 22.6677 35.2491 22.2505C35.8804 21.9692 36.7749 21.73 37.7511 21.5816C38.5845 21.4548 39.2393 21.4087 42.6078 21.2389C43.4792 21.195 44.8432 21.1042 45.6389 21.0372C47.5324 20.8777 49.2575 20.9005 49.8236 21.0926ZM17.3761 21.9588C17.4384 21.9823 17.5063 22.0827 17.5271 22.1821C17.6683 22.8584 17.8368 24.6931 17.8732 25.9514C17.9205 27.5874 18.0773 31.1037 18.1857 32.9597C18.3222 35.2979 18.3946 37.834 18.3951 40.2951C18.3954 41.6719 18.3853 42.8086 18.3725 42.8211C18.3599 42.8335 18.1079 42.8767 17.8125 42.9172C17.2949 42.9879 16.8658 42.964 16.6854 42.8545C16.629 42.8202 16.5766 42.4873 16.5342 41.8929C16.4064 40.1042 16.1885 35.2378 16.0872 31.9101C15.915 26.251 15.8478 24.1659 15.8065 23.1955C15.7643 22.2069 15.8002 22.0347 16.0728 21.9183C16.2269 21.8526 17.1724 21.882 17.3761 21.9588ZM47.6618 27.4907C48.398 27.7601 48.7875 28.3671 48.644 29.0216C48.4899 29.7245 48.1619 30.1737 47.5953 30.4578C47.2258 30.6431 46.5499 30.6923 42.5389 30.8257C40.7581 30.885 38.5902 30.9589 37.7212 30.99C35.9454 31.0536 35.6246 31.0099 35.172 30.6432C34.3069 29.9423 34.4735 28.4457 35.4712 27.9544C35.6795 27.8519 35.9765 27.8255 37.3378 27.7887C39.0185 27.7431 39.8276 27.7008 43.9856 27.4409C46.6453 27.2746 47.0876 27.2806 47.6618 27.4907ZM44.5711 33.2318C45.2421 33.3425 45.483 33.4898 45.7029 33.9235C46.0236 34.556 45.8964 35.4326 45.4319 35.7918C45.1366 36.0201 44.8467 36.0668 43.2597 36.1415C42.4465 36.1797 40.9131 36.2555 39.8522 36.3098C35.4094 36.5372 35.4734 36.5397 34.9599 36.1236C34.6408 35.8651 34.5129 35.5742 34.5148 35.1118C34.519 34.1319 35.314 33.4667 36.6144 33.3549C37.1153 33.3119 40.1309 33.1408 41.54 33.0756C42.1344 33.0481 44.0582 33.1473 44.5711 33.2318ZM40.8662 46.9212L40.8856 47.7463L41.0922 47.7629C41.2059 47.7719 41.6091 47.795 41.9882 47.8141C42.7392 47.852 43.8151 48.0619 44.2684 48.2591C44.5061 48.3624 44.5502 48.4107 44.5274 48.5433C44.5124 48.6311 44.4552 49.2022 44.4003 49.8122C44.3454 50.4223 44.2908 50.9309 44.2789 50.9425C44.2672 50.9541 43.9484 50.8597 43.5704 50.7327C42.7701 50.4639 42.1309 50.3251 41.385 50.2584L40.8511 50.2106V51.7015V53.1923L41.385 53.3084C42.1614 53.4772 43.1399 53.8362 43.6653 54.1448C44.4944 54.6319 45.0226 55.2598 45.3247 56.1176C45.5395 56.7273 45.5957 57.991 45.4375 58.6521C44.9944 60.5031 43.4465 61.6155 40.9028 61.9112L40.5756 61.9492V62.7576V63.566H39.99H39.4044V62.7589V61.9517L38.9739 61.9148C38.7371 61.8944 38.2709 61.8598 37.9379 61.8379C37.1197 61.7839 36.0664 61.6246 35.6656 61.4943L35.3368 61.3873L35.3773 61.0716C35.3995 60.898 35.4577 60.2907 35.5064 59.7221C35.5551 59.1535 35.6074 58.6763 35.6225 58.6617C35.6376 58.647 35.8825 58.7121 36.1667 58.8063C36.9255 59.0579 37.825 59.2274 38.6651 59.2771L39.4069 59.3209L39.3885 57.6762L39.37 56.0314L38.75 55.8829C37.4897 55.581 36.5544 55.0828 35.8463 54.3362C35.1344 53.5857 34.8578 52.8875 34.8578 51.8407C34.8578 51.0792 34.9509 50.6516 35.2536 50.0234C35.7389 49.0162 36.7568 48.2965 38.1729 47.9593C38.5661 47.8656 39.0505 47.789 39.2494 47.7889L39.6111 47.7889V46.9424V46.096H40.229H40.8468L40.8662 46.9212ZM39.2322 50.2898C38.8994 50.3695 38.6135 50.5411 38.3823 50.7999C38.1228 51.0905 38.0681 51.2767 38.1117 51.7226C38.1661 52.2785 38.6792 52.7519 39.3872 52.8992L39.6111 52.9458V51.5861C39.6111 50.5399 39.5913 50.2282 39.525 50.2334C39.4777 50.2373 39.3459 50.2626 39.2322 50.2898ZM40.5756 57.7427C40.5756 59.5143 40.5215 59.389 41.1998 59.191C41.6613 59.0563 42.1096 58.6432 42.2206 58.2503C42.4144 57.5641 42.2372 56.9365 41.7624 56.6276C41.5332 56.4785 40.7849 56.1853 40.6336 56.1853C40.6017 56.1853 40.5756 56.8861 40.5756 57.7427Z" fill="#F8F8F8"/>
</svg>
