<svg width="58" height="65" viewBox="0 0 58 65" fill="none" xmlns="http://www.w3.org/2000/svg">
<path fill-rule="evenodd" clip-rule="evenodd" d="M5.86824 0.058366C4.79454 0.225798 3.50454 0.855129 2.58663 1.65935C1.25111 2.82946 0.298806 4.6337 0.0729445 6.42169C0.0225181 6.82051 -6.8082e-05 13.4196 1.5413e-07 27.7293C0.000136626 45.7702 0.0133062 48.5403 0.101877 49.0848C0.62668 52.3128 3.01085 54.832 5.97223 55.2877C6.36725 55.3485 10.2403 55.3655 20.0955 55.3496L33.6744 55.3278L34.343 55.124C35.5612 54.7526 36.4933 54.1814 37.3842 53.2602C38.5538 52.0507 39.2991 50.4515 39.5011 48.7176C39.5891 47.9627 39.5981 7.95649 39.5105 6.89126C39.4744 6.45174 39.3792 5.83689 39.299 5.52492C38.7241 3.28944 37.1093 1.33099 35.1784 0.527649C33.8273 -0.0345454 35.2518 0.0148646 19.9931 0.00134883C11.7893 -0.00596295 6.13422 0.0169325 5.86824 0.058366ZM33.3623 5.16206C33.9869 5.43216 34.4545 5.93852 34.709 6.62051L34.8695 7.05065L34.852 27.7918L34.8345 48.533L34.6539 48.9023C34.3063 49.6133 33.7058 50.1026 32.9736 50.2713C32.7616 50.3202 28.1556 50.3388 19.5496 50.3256L6.44824 50.3055L5.99604 50.0661C5.4696 49.7873 5.10774 49.3862 4.85391 48.8003L4.6741 48.3853V27.6685V6.95183L4.85391 6.53675C5.18301 5.77714 5.80737 5.22093 6.49758 5.07262C6.65807 5.03813 12.7004 5.01479 19.9249 5.0207C32.3107 5.03097 33.0776 5.03902 33.3623 5.16206ZM28.0564 7.635C28.0224 7.70612 27.9625 7.88057 27.9231 8.02274C27.8837 8.16492 27.7134 8.74654 27.5447 9.31523C26.5151 12.7859 25.9296 14.8148 25.9296 14.912C25.9296 15.0764 26.0795 15.113 26.7541 15.113C27.2529 15.113 27.3851 15.0886 27.4875 14.9777C27.5563 14.9034 27.6997 14.5045 27.8063 14.0915L28.0001 13.3404H29.0412H30.0824L30.1855 13.7282C30.2422 13.9414 30.3409 14.321 30.4048 14.5716C30.5419 15.1103 30.5424 15.1105 31.4759 15.1119C32.0188 15.1127 32.1511 15.0914 32.1844 14.9975C32.2239 14.8858 30.1295 7.78434 30.002 7.59807C29.957 7.53226 29.6776 7.50575 29.0285 7.50575C28.2304 7.50575 28.1104 7.5217 28.0564 7.635ZM41.9131 10.7356L41.931 13.3746L46.1616 14.5702C48.4885 15.2278 50.7147 15.8557 51.1088 15.9657C52.2821 16.293 52.7697 16.6701 53.1462 17.5414C53.4257 18.1883 53.3958 18.7677 53.0026 20.3198C52.8276 21.0104 51.2228 27.5578 49.4362 34.8695C47.6497 42.1813 45.9921 48.9613 45.7526 49.9362C45.5131 50.9112 44.9612 53.1712 44.5264 54.9585C44.0914 56.7458 43.684 58.3369 43.6209 58.4943C43.3477 59.176 42.7675 59.7045 42.0674 59.9097C41.5349 60.0657 41.3481 60.0429 40.0059 59.6582C39.4509 59.4991 37.7533 59.0242 36.2333 58.6029L33.4697 57.8367L24.7696 57.8747L16.0695 57.9127L16.5813 58.1212C16.8628 58.2359 18.0296 58.5972 19.1743 58.9242C20.3189 59.2512 21.6393 59.6285 22.1084 59.7626C22.5775 59.8968 23.5601 60.1775 24.292 60.3863C25.0238 60.5951 25.8375 60.8281 26.1002 60.904C26.3629 60.9799 27.2381 61.2311 28.045 61.4621C28.8519 61.6931 29.9112 61.9965 30.3991 62.1362C30.887 62.2759 32.0231 62.6 32.9238 62.8563C33.8246 63.1127 35.8665 63.6999 37.4615 64.1612L40.3616 65L41.5898 64.9965C42.7278 64.9932 42.8632 64.9781 43.4322 64.791C45.4456 64.1286 46.9767 62.7158 47.8388 60.7247C48.0997 60.1222 48.3026 59.3844 49.0284 56.3987C49.5067 54.4315 50.4945 50.3837 51.0833 47.9791C51.327 46.9838 51.5993 45.8705 51.6885 45.5049C51.9339 44.4989 52.6768 41.4626 53.2244 39.2271C53.4931 38.1303 53.9844 36.1196 54.3163 34.7588C54.648 33.398 55.139 31.3872 55.4073 30.2904C55.6756 29.1937 55.972 27.9806 56.066 27.5947C56.1599 27.2088 56.5599 25.5803 56.9546 23.9757C57.9573 19.9003 57.9992 19.6848 58 18.6108C58.0007 17.5622 57.8698 16.7219 57.576 15.8884C56.8922 13.9494 55.5388 12.3936 53.8439 11.5986C53.5467 11.4592 52.3874 11.0823 51.2679 10.761C50.1483 10.4398 47.6016 9.70889 45.6085 9.13679C43.6154 8.5647 41.9646 8.0966 41.9399 8.0966C41.9153 8.0966 41.9032 9.28414 41.9131 10.7356ZM29.3989 10.6116C29.555 11.2435 29.6826 11.8167 29.6826 11.8857C29.6826 11.9947 29.5985 12.011 29.0344 12.011C28.6085 12.011 28.3861 11.9831 28.3861 11.9297C28.3861 11.8501 28.6725 10.6375 28.7943 10.2015C28.8282 10.0796 28.8908 9.83444 28.9332 9.65667C28.9756 9.47882 29.0338 9.3625 29.0626 9.39817C29.0915 9.43377 29.2428 9.97986 29.3989 10.6116ZM19.1743 15.6375C15.2124 18.9267 12.7197 21.5778 11.0914 24.2342C9.66441 26.562 9.26052 28.3203 9.69355 30.3189C10.194 32.6285 11.8446 34.1215 14.2061 34.4006C14.8048 34.4714 14.994 34.4657 15.4646 34.3624C16.4342 34.1498 17.6035 33.5271 18.4995 32.7462C18.7209 32.5532 18.9136 32.3954 18.9278 32.3954C18.9615 32.3954 18.552 33.9771 18.2394 35.0542C17.884 36.2789 17.2706 38.0682 16.8899 38.9907C16.6912 39.4723 16.5855 39.815 16.6231 39.8558C16.8023 40.0498 20.5511 40.1777 22.0181 40.0399C22.5569 39.9893 23.0637 39.8794 23.0637 39.8132C23.0637 39.7935 22.9557 39.5452 22.8237 39.2614C22.2238 37.9722 21.4566 35.664 20.9918 33.7507C20.6168 32.2066 20.5997 32.3228 21.1335 32.7893C22.6052 34.0754 23.9344 34.5754 25.3941 34.3918C27.2609 34.1568 28.616 33.1639 29.3784 31.4721C29.81 30.5147 29.9152 29.9783 29.915 28.7395C29.9149 27.7383 29.9067 27.6796 29.6588 26.8931C28.8115 24.2045 26.3816 21.0046 22.5977 17.5945C21.3846 16.5012 19.8521 15.2596 19.7223 15.265C19.6649 15.2673 19.4182 15.435 19.1743 15.6375ZM46.5846 17.5687C46.494 17.6601 45.981 18.4827 45.4446 19.3966C44.9083 20.3106 44.1247 21.64 43.7034 22.3509C43.2822 23.0618 42.9017 23.7185 42.8579 23.8102C42.7658 24.0036 42.752 23.9955 43.7038 24.3097C44.422 24.5469 44.4105 24.5538 44.8854 23.592C45.062 23.2346 45.2399 22.9555 45.2809 22.972C45.3219 22.9886 45.7748 23.1297 46.2874 23.2857L47.2193 23.5694V24.3183C47.2193 24.9241 47.2421 25.0963 47.3387 25.2199C47.4682 25.3855 48.8211 25.8549 48.9399 25.7754C48.9983 25.7363 48.958 23.6414 48.8911 23.2372C48.881 23.1762 48.8514 22.578 48.8254 21.9077C48.7994 21.2375 48.7675 20.606 48.7546 20.5045C48.7417 20.4029 48.7101 19.8148 48.6842 19.1976C48.6463 18.2939 48.6154 18.0548 48.5253 17.9698C48.4128 17.8636 47.0563 17.4025 46.8564 17.4025C46.7975 17.4025 46.6751 17.4772 46.5846 17.5687ZM47.1946 22.1068C47.1793 22.1234 46.9099 22.0561 46.596 21.9574C46.1606 21.8204 46.0276 21.7484 46.0353 21.6538C46.0409 21.5857 46.3019 21.0471 46.6153 20.457L47.1852 19.3842L47.2038 20.7305C47.2141 21.4709 47.21 22.0902 47.1946 22.1068ZM7.37393 40.2934C7.29287 40.3489 7.45739 40.9812 8.32924 43.9644C8.91204 45.959 9.43569 47.6271 9.50181 47.6999C9.60355 47.8119 9.74623 47.8313 10.4658 47.8313C11.0588 47.8313 11.3311 47.8039 11.3801 47.739C11.4902 47.5931 13.6323 40.4193 13.5965 40.3165C13.5735 40.2505 13.3556 40.2241 12.834 40.2241C12.3552 40.2241 12.0652 40.2559 11.9916 40.3165C11.9299 40.3673 11.7909 40.7577 11.6828 41.1843L11.4863 41.9598L10.433 41.98L9.37967 42.0002L9.18178 41.2184C9.04551 40.6797 8.94043 40.4035 8.84388 40.3303C8.6842 40.2093 7.53879 40.1805 7.37393 40.2934ZM10.9508 44.0093C10.7009 45.1307 10.4781 45.9849 10.4353 45.9849C10.4006 45.9849 9.75769 43.5085 9.75769 43.3751C9.75769 43.3481 10.0604 43.3261 10.4304 43.3261H11.103L10.9508 44.0093Z" fill="white"/>
</svg>
