<svg width="58" height="65" viewBox="0 0 58 65" fill="none" xmlns="http://www.w3.org/2000/svg">
<path fill-rule="evenodd" clip-rule="evenodd" d="M52.1318 64.9416C53.2055 64.7742 54.4955 64.1449 55.4134 63.3406C56.7489 62.1705 57.7012 60.3663 57.9271 58.5783C57.9775 58.1795 58.0001 51.5804 58 37.2707C57.9999 19.2298 57.9867 16.4597 57.8981 15.9152C57.3733 12.6872 54.9892 10.168 52.0278 9.71226C51.6328 9.65148 47.7597 9.63449 37.9045 9.65037L24.3256 9.67223L23.657 9.876C22.4388 10.2473 21.5067 10.8186 20.6158 11.7398C19.4462 12.9493 18.7009 14.5485 18.4989 16.2824C18.4109 17.0373 18.4019 57.0435 18.4895 58.1087C18.5256 58.5483 18.6208 59.1631 18.701 59.4751C19.2759 61.7106 20.8907 63.669 22.8216 64.4723C24.1727 65.0345 22.7482 64.9851 38.0069 64.9986C46.2107 65.006 51.8658 64.9831 52.1318 64.9416ZM24.6377 59.8379C24.0131 59.5678 23.5455 59.0615 23.291 58.3795L23.1305 57.9494L23.148 37.2082L23.1656 16.467L23.3461 16.0977C23.6937 15.3867 24.2942 14.8974 25.0264 14.7287C25.2384 14.6798 29.8444 14.6612 38.4504 14.6744L51.5518 14.6945L52.004 14.9339C52.5304 15.2127 52.8923 15.6138 53.1461 16.1997L53.3259 16.6147L53.3259 37.3315L53.3259 58.0482L53.1461 58.4632C52.817 59.2229 52.1926 59.7791 51.5024 59.9274C51.3419 59.9619 45.2996 59.9852 38.0751 59.9793C25.6893 59.969 24.9224 59.961 24.6377 59.8379ZM29.9436 57.365C29.9776 57.2939 30.0375 57.1194 30.0769 56.9773C30.1163 56.8351 30.2866 56.2535 30.4553 55.6848C31.4849 52.2141 32.0704 50.1852 32.0704 50.088C32.0704 49.9236 31.9205 49.887 31.2459 49.887C30.7471 49.887 30.6149 49.9114 30.5125 50.0223C30.4437 50.0966 30.3003 50.4955 30.1937 50.9085L29.9999 51.6596L28.9588 51.6596L27.9176 51.6596L27.8145 51.2718C27.7578 51.0586 27.6591 50.679 27.5952 50.4284C27.4581 49.8897 27.4576 49.8895 26.5241 49.8881C25.9812 49.8873 25.8489 49.9086 25.8156 50.0025C25.7761 50.1141 27.8705 57.2157 27.998 57.4019C28.043 57.4677 28.3224 57.4942 28.9716 57.4942C29.7696 57.4942 29.8896 57.4783 29.9436 57.365ZM16.0869 54.2644L16.069 51.6254L11.8384 50.4298C9.5115 49.7722 7.2853 49.1443 6.89124 49.0343C5.71792 48.707 5.2303 48.3299 4.85385 47.4586C4.57428 46.8117 4.60423 46.2323 4.99741 44.6802C5.17237 43.9896 6.77721 37.4422 8.56377 30.1305C10.3503 22.8187 12.0079 16.0387 12.2474 15.0637C12.4869 14.0888 13.0388 11.8288 13.4736 10.0415C13.9086 8.25419 14.316 6.6631 14.3791 6.50571C14.6523 5.82402 15.2325 5.2955 15.9326 5.09033C16.4651 4.93434 16.6519 4.95709 17.9941 5.34181C18.5491 5.5009 20.2467 5.9758 21.7667 6.39714L24.5303 7.16333L33.2304 7.1253L41.9305 7.08726L41.4187 6.87884C41.1372 6.76414 39.9704 6.40283 38.8257 6.0758C37.6811 5.74883 36.3607 5.3715 35.8916 5.23738C35.4225 5.10318 34.4399 4.82253 33.708 4.61373C32.9762 4.40487 32.1625 4.17193 31.8998 4.09601C31.6371 4.02008 30.7619 3.7689 29.955 3.53787C29.1481 3.30685 28.0888 3.00352 27.6009 2.86378C27.113 2.72412 25.9769 2.40004 25.0762 2.14368C24.1754 1.88733 22.1335 1.30009 20.5385 0.838788L17.6384 -3.52852e-06L16.4102 0.00346774C15.2722 0.00679406 15.1368 0.0218621 14.5678 0.209011C12.5544 0.871357 11.0233 2.28423 10.1612 4.27533C9.90032 4.87785 9.69745 5.6156 8.97162 8.60131C8.49335 10.5685 7.5055 14.6163 6.91669 17.0209C6.67302 18.0162 6.40069 19.1295 6.31151 19.4951C6.06613 20.5011 5.32324 23.5374 4.77558 25.7729C4.50687 26.8697 4.01557 28.8804 3.68373 30.2412C3.35197 31.602 2.86101 33.6128 2.59271 34.7095C2.3244 35.8063 2.02798 37.0194 1.93402 37.4053C1.84006 37.7912 1.44013 39.4197 1.04538 41.0243C0.0427187 45.0997 0.000753216 45.3152 5.4417e-06 46.3892C-0.000746145 47.4378 0.130201 48.2781 0.424028 49.1115C1.10775 51.0506 2.46121 52.6064 4.15606 53.4013C4.4533 53.5408 5.61256 53.9177 6.73211 54.239C7.85173 54.5602 10.3984 55.2911 12.3915 55.8632C14.3846 56.4353 16.0354 56.9034 16.0601 56.9034C16.0847 56.9034 16.0968 55.7159 16.0869 54.2644ZM28.6011 54.3884C28.445 53.7565 28.3174 53.1833 28.3174 53.1143C28.3174 53.0053 28.4015 52.989 28.9656 52.989C29.3915 52.989 29.6139 53.0169 29.6139 53.0703C29.6139 53.1499 29.3275 54.3625 29.2057 54.7985C29.1718 54.9204 29.1092 55.1656 29.0668 55.3433C29.0244 55.5212 28.9662 55.6375 28.9374 55.6018C28.9085 55.5662 28.7572 55.0201 28.6011 54.3884ZM38.8257 49.3625C42.7876 46.0733 45.2803 43.4222 46.9086 40.7658C48.3356 38.438 48.7395 36.6797 48.3065 34.6811C47.806 32.3715 46.1554 30.8785 43.7939 30.5994C43.1952 30.5286 43.006 30.5343 42.5355 30.6376C41.5658 30.8502 40.3965 31.4729 39.5005 32.2538C39.2791 32.4468 39.0864 32.6046 39.0722 32.6046C39.0385 32.6046 39.448 31.0229 39.7606 29.9458C40.116 28.7211 40.7294 26.9318 41.1101 26.0093C41.3088 25.5277 41.4145 25.185 41.3769 25.1442C41.1977 24.9502 37.4489 24.8223 35.9819 24.9601C35.4431 25.0107 34.9363 25.1206 34.9363 25.1868C34.9363 25.2065 35.0443 25.4548 35.1763 25.7386C35.7762 27.0278 36.5434 29.336 37.0082 31.2493C37.3832 32.7934 37.4003 32.6772 36.8665 32.2107C35.3948 30.9246 34.0656 30.4246 32.6059 30.6082C30.7391 30.8432 29.384 31.8361 28.6216 33.5279C28.19 34.4853 28.0848 35.0217 28.085 36.2605C28.0851 37.2617 28.0933 37.3204 28.3412 38.1069C29.1885 40.7955 31.6184 43.9954 35.4023 47.4055C36.6154 48.4988 38.1479 49.7404 38.2777 49.735C38.3351 49.7327 38.5818 49.565 38.8257 49.3625ZM11.4154 47.4313C11.506 47.3399 12.019 46.5173 12.5554 45.6034C13.0917 44.6894 13.8753 43.36 14.2966 42.6491C14.7179 41.9382 15.0983 41.2815 15.1421 41.1898C15.2342 40.9964 15.248 41.0045 14.2962 40.6903C13.578 40.4531 13.5895 40.4462 13.1146 41.408C12.938 41.7654 12.7601 42.0445 12.7191 42.028C12.6781 42.0114 12.2252 41.8703 11.7126 41.7143L10.7807 41.4306L10.7807 40.6817C10.7807 40.0759 10.7579 39.9036 10.6613 39.7801C10.5318 39.6145 9.17892 39.1451 9.06012 39.2246C9.00171 39.2637 9.04197 41.3585 9.10891 41.7628C9.11901 41.8238 9.14856 42.422 9.17462 43.0923C9.20062 43.7625 9.23248 44.394 9.24538 44.4955C9.25828 44.5971 9.28994 45.1852 9.3158 45.8024C9.35367 46.7061 9.38458 46.9452 9.47473 47.0302C9.58725 47.1364 10.9437 47.5975 11.1436 47.5975C11.2025 47.5975 11.3249 47.5227 11.4154 47.4313ZM10.8054 42.8932C10.8207 42.8766 11.0901 42.9439 11.404 43.0426C11.8394 43.1796 11.9724 43.2516 11.9647 43.3462C11.9591 43.4143 11.6981 43.9529 11.3847 44.543L10.8148 45.6158L10.7962 44.2695C10.7859 43.5291 10.79 42.9098 10.8054 42.8932ZM50.6261 24.7066C50.7071 24.651 50.5426 24.0188 49.6708 21.0356C49.088 19.041 48.5643 17.3729 48.4982 17.3001C48.3965 17.1881 48.2538 17.1687 47.5342 17.1687C46.9412 17.1687 46.6689 17.1961 46.6199 17.261C46.5098 17.4069 44.3677 24.5807 44.4035 24.6835C44.4265 24.7495 44.6444 24.7759 45.166 24.7759C45.6448 24.7759 45.9348 24.7441 46.0084 24.6835C46.0702 24.6327 46.2091 24.2423 46.3172 23.8157L46.5137 23.0402L47.567 23.02L48.6203 22.9998L48.8182 23.7816C48.9545 24.3203 49.0596 24.5965 49.1561 24.6697C49.3158 24.7907 50.4612 24.8195 50.6261 24.7066ZM47.0492 20.9907C47.2991 19.8693 47.5219 19.0151 47.5647 19.0151C47.5994 19.0151 48.2423 21.4915 48.2423 21.6249C48.2423 21.6519 47.9396 21.6739 47.5696 21.6739L46.897 21.6739L47.0492 20.9907Z" fill="white"/>
</svg>
